<?xml version="1.0" standalone="no"?>
<!DOCTYPE svg PUBLIC "-//W3C//DTD SVG 20010904//EN"
 "http://www.w3.org/TR/2001/REC-SVG-20010904/DTD/svg10.dtd">
<svg version="1.0" xmlns="http://www.w3.org/2000/svg"
 width="700.000000pt" height="700.000000pt" viewBox="0 0 700.000000 700.000000"
 preserveAspectRatio="xMidYMid meet">
<metadata>
Created by potrace 1.11, written by Peter Selinger 2001-2013
</metadata>
<g transform="translate(0.000000,700.000000) scale(0.100000,-0.100000)"
fill="#000000" stroke="none">
<path d="M2670 6534 c-47 -14 -89 -27 -95 -28 -29 -7 -103 -28 -125 -36 -14
-4 -33 -11 -43 -14 -17 -6 -17 -8 4 -38 13 -18 55 -67 93 -109 111 -118 156
-230 148 -369 -6 -129 -6 -182 2 -271 4 -51 3 -119 -3 -165 -6 -44 -13 -97
-15 -119 -10 -79 -16 -122 -37 -270 -11 -82 -22 -159 -23 -170 -12 -89 -52
-155 -121 -198 -68 -43 -116 -49 -225 -31 -54 9 -76 9 -245 0 -330 -17 -462
-30 -600 -56 -27 -5 -66 -12 -85 -16 -19 -3 -119 -6 -221 -5 -182 1 -239 -6
-239 -30 0 -7 13 -40 29 -73 30 -61 42 -102 62 -210 21 -113 50 -122 276 -85
71 11 142 22 158 25 17 2 41 6 55 9 14 2 50 7 80 10 30 3 62 8 70 10 8 2 40 6
71 10 31 3 66 7 77 10 11 2 42 6 69 10 26 4 59 8 72 11 14 2 51 6 84 9 32 4
66 8 76 10 10 2 53 6 97 10 43 4 95 8 114 10 19 2 96 7 170 10 129 7 136 6
154 -14 18 -20 19 -41 18 -389 -1 -208 -6 -380 -11 -394 -23 -61 -94 -84 -168
-53 -41 17 -222 142 -351 243 -68 52 -91 65 -122 66 -46 1 -117 -45 -135 -88
-15 -35 -10 -51 80 -271 87 -213 92 -230 110 -485 6 -84 18 -410 17 -455 -1
-22 -4 -121 -7 -220 -5 -182 -9 -238 -25 -310 -5 -22 -16 -94 -25 -160 -22
-164 -49 -318 -59 -334 -9 -14 -19 -121 -17 -184 1 -77 21 -185 44 -240 22
-51 54 -57 124 -23 31 15 70 26 94 26 42 0 95 22 117 49 22 27 50 94 56 136 4
22 8 54 11 70 5 34 14 120 21 215 3 36 7 76 9 90 3 14 7 77 11 140 12 232 13
235 104 246 118 14 562 20 637 9 47 -7 92 -50 94 -88 6 -157 5 -153 61 -162
82 -13 193 43 245 124 34 53 42 75 50 151 5 53 11 74 47 200 22 75 44 183 52
255 3 33 8 67 9 76 2 9 6 61 10 115 3 55 8 122 10 151 3 28 7 128 10 220 3 93
8 180 10 194 13 66 19 88 41 141 30 71 31 117 3 152 -21 26 -255 185 -317 214
-31 15 -34 15 -53 -5 -14 -14 -23 -40 -28 -81 -4 -37 -15 -69 -26 -82 -10 -11
-59 -33 -109 -50 -50 -16 -117 -38 -148 -49 -54 -20 -89 -26 -131 -22 -35 2
-50 65 -43 181 3 58 8 116 10 130 3 14 12 79 21 145 9 66 18 131 20 145 2 14
7 45 10 70 3 25 7 54 9 66 2 12 7 44 11 71 3 28 9 63 14 79 l7 29 180 1 c231
1 351 14 480 53 139 41 187 153 103 239 -50 51 -123 81 -281 116 -21 5 -41 -4
-91 -38 -88 -60 -141 -77 -219 -70 -72 7 -118 27 -119 52 0 21 -7 97 -12 137
-2 17 7 62 20 100 13 39 25 88 27 111 2 22 15 58 29 80 31 48 37 77 41 224 2
63 11 142 20 175 20 74 20 112 1 149 -8 15 -15 33 -15 38 0 5 49 98 110 207
132 237 139 255 115 281 -10 11 -22 20 -27 20 -13 0 -68 27 -113 55 -103 65
-174 95 -263 110 -30 5 -32 3 -28 -17 11 -48 11 -71 -1 -75 -7 -3 -16 17 -23
52 -14 67 -48 111 -98 125 -47 13 -42 13 -142 -16z m526 -3283 c20 -2 6 -740
-16 -835 -30 -135 -125 -206 -234 -175 -114 33 -228 47 -416 53 -120 3 -160
18 -186 68 -14 27 -16 53 -10 174 4 78 9 152 11 165 2 13 6 67 10 119 11 164
34 312 51 331 9 10 41 30 72 45 55 26 96 30 222 22 19 -1 176 12 204 18 11 2
67 6 125 10 59 3 107 7 109 9 2 2 15 1 58 -4z"/>
<path d="M5645 6216 c-16 -7 -79 -64 -140 -125 -153 -157 -182 -172 -400 -206
-55 -9 -111 -18 -125 -21 -14 -2 -43 -7 -65 -9 -22 -3 -51 -8 -65 -10 -27 -4
-90 -13 -155 -21 -22 -2 -52 -7 -68 -10 -35 -7 -100 24 -152 74 -35 33 -129
108 -257 204 -21 15 -55 41 -75 56 -37 28 -140 72 -168 72 -9 0 -15 -9 -15
-21 0 -30 -31 -78 -55 -85 -63 -19 -133 -58 -148 -83 -23 -39 -12 -68 44 -124
86 -85 139 -232 199 -547 17 -91 45 -221 62 -290 38 -158 41 -295 8 -419 -13
-49 -18 -84 -25 -155 -3 -34 -8 -74 -10 -91 -5 -46 -6 -146 -2 -305 3 -80 1
-183 -4 -230 -4 -47 -10 -123 -14 -170 -4 -47 -8 -103 -10 -126 -2 -22 -6 -85
-10 -140 -4 -54 -9 -106 -10 -114 -4 -22 -15 -207 -20 -350 -3 -69 -7 -134 -9
-145 -2 -11 -7 -40 -10 -65 -3 -25 -8 -56 -11 -70 -2 -13 -7 -42 -10 -65 -3
-22 -8 -47 -10 -55 -2 -8 -7 -28 -10 -45 -2 -16 -7 -41 -10 -55 -3 -14 -8 -38
-11 -55 -26 -152 -86 -344 -155 -500 -49 -112 -57 -133 -84 -205 -35 -94 -32
-88 -196 -305 -146 -193 -249 -341 -295 -424 -25 -44 -59 -74 -244 -213 -285
-215 -372 -287 -368 -307 6 -28 59 -22 158 21 52 22 140 56 195 75 199 69 338
154 447 272 75 81 523 684 640 861 69 105 154 274 202 403 37 99 101 312 111
369 3 17 7 34 9 37 2 3 7 29 10 56 4 28 11 77 16 110 5 33 12 96 15 140 20
241 30 275 98 305 42 18 100 24 382 35 503 21 503 21 525 75 16 38 27 150 19
190 -11 54 -31 63 -124 55 -44 -3 -93 -8 -110 -10 -16 -2 -66 -7 -110 -10 -44
-3 -111 -8 -150 -11 -73 -5 -208 -21 -260 -31 -110 -20 -192 21 -215 108 -10
38 -7 337 4 404 3 17 7 62 11 100 17 219 33 318 54 338 10 11 38 20 62 23 24
2 60 6 79 8 19 3 60 8 90 11 30 4 66 8 80 10 14 2 61 7 105 10 44 3 96 8 115
11 19 2 58 6 85 9 28 2 66 6 85 9 19 2 62 8 95 11 117 14 131 30 114 132 -6
38 -15 72 -20 77 -5 5 -71 11 -146 13 -76 2 -158 5 -183 6 -59 3 -111 -5 -263
-42 -110 -26 -230 -24 -278 7 -69 42 -73 85 -43 447 1 22 6 127 9 234 4 107
12 210 18 230 8 24 24 42 51 57 47 27 228 64 386 79 36 4 76 8 90 11 14 2 107
6 207 10 274 9 279 5 291 -199 7 -118 8 -773 3 -1122 -2 -93 2 -197 8 -230 6
-33 13 -73 15 -90 3 -16 8 -142 11 -280 3 -137 8 -335 10 -440 3 -104 12 -235
20 -290 30 -188 33 -210 29 -230 -2 -11 -6 -40 -9 -65 -3 -25 -7 -56 -10 -70
-2 -14 -7 -47 -10 -75 -3 -27 -7 -61 -9 -75 -9 -55 -16 -119 -21 -190 -7 -92
-14 -167 -20 -200 -3 -14 -7 -41 -10 -60 -15 -91 -84 -318 -117 -383 -10 -21
-29 -41 -41 -46 -12 -4 -107 -7 -212 -6 -104 1 -196 -1 -202 -3 -18 -6 -16
-63 3 -90 8 -12 48 -44 87 -71 173 -116 254 -239 293 -439 18 -99 35 -130 72
-137 13 -2 79 14 146 36 144 47 223 101 323 219 95 114 147 237 158 375 16
196 21 1101 11 1800 -4 215 -8 599 -11 855 -4 430 -8 571 -19 675 -3 22 -7 94
-11 160 -3 66 -8 161 -11 210 -16 295 -16 298 11 351 19 38 38 58 81 84 84 53
123 83 129 102 7 21 -24 94 -57 129 -12 14 -56 49 -96 78 -40 28 -119 88 -174
132 -130 104 -157 114 -223 85z"/>
</g>
</svg>
